<?xml version="1.0" standalone="no"?>
<!DOCTYPE svg PUBLIC "-//W3C//DTD SVG 20010904//EN"
 "http://www.w3.org/TR/2001/REC-SVG-20010904/DTD/svg10.dtd">
<svg version="1.0" xmlns="http://www.w3.org/2000/svg"
 width="471.000000pt" height="471.000000pt" viewBox="0 0 471.000000 471.000000"
 preserveAspectRatio="xMidYMid meet">

<g transform="translate(0.000000,471.000000) scale(0.100000,-0.100000)"
fill="#0290ff" stroke="none">
<path d="M2120 4674 c-465 -62 -859 -219 -1188 -473 -205 -159 -407 -379 -538
-589 -243 -386 -387 -902 -371 -1327 28 -684 331 -1298 862 -1743 367 -308
865 -494 1405 -527 222 -14 632 59 905 160 684 253 1206 824 1401 1535 65 236
85 372 91 610 4 165 2 241 -11 327 -14 103 -62 339 -72 355 -7 11 -171 -49
-243 -88 -295 -162 -484 -507 -521 -952 -5 -64 -10 -130 -10 -147 l0 -30 -183
-1 c-163 0 -192 -3 -278 -26 -445 -120 -705 -512 -747 -1126 l-7 -101 -265
252 c-455 433 -984 957 -999 990 -17 40 -11 115 23 299 32 171 65 276 126 403
92 192 228 340 390 424 167 87 267 111 491 118 l176 5 12 135 c32 362 138 644
310 826 151 160 412 269 679 284 l113 6 -98 65 c-399 261 -989 398 -1453 336z"/>
<path d="M3445 3338 c-63 -35 -108 -103 -120 -181 l-7 -47 31 0 c25 0 32 5 37
28 19 86 43 122 92 137 23 7 112 -36 112 -55 0 -5 -18 -35 -40 -67 -54 -76
-76 -150 -60 -199 15 -44 61 -74 114 -74 69 0 146 99 146 190 0 19 3 21 12 12
18 -18 56 -14 67 7 9 16 -5 33 -103 119 -62 55 -128 110 -147 121 -37 23 -101
27 -134 9z m244 -202 c34 -36 23 -106 -24 -153 -36 -36 -59 -41 -93 -17 -36
25 -30 79 18 153 44 67 51 69 99 17z"/>
<path d="M3002 3158 c-18 -18 -14 -63 6 -81 38 -34 92 -8 92 44 0 33 -18 49
-55 49 -17 0 -36 -5 -43 -12z"/>
<path d="M3151 3018 l-24 -30 26 -21 c14 -12 89 -78 167 -147 78 -69 145 -126
150 -128 4 -2 18 10 29 27 l22 30 -166 148 c-92 81 -170 149 -173 150 -4 1
-18 -12 -31 -29z"/>
<path d="M3021 2880 c-35 -36 -48 -88 -33 -136 9 -31 9 -33 -8 -24 -11 6 -22
15 -25 20 -3 6 -14 10 -24 10 -23 0 -58 -38 -45 -48 8 -7 249 -221 312 -276
l22 -19 25 23 c14 13 25 27 25 31 0 4 -49 51 -109 105 -91 80 -111 103 -119
136 -13 49 -3 81 40 125 30 31 30 31 12 57 -25 33 -36 32 -73 -4z"/>
<path d="M2740 2534 c-119 -51 -170 -198 -108 -306 75 -127 220 -177 325 -112
67 41 105 100 111 168 6 70 -10 114 -59 169 -74 85 -184 118 -269 81z m118
-69 c42 -18 107 -77 128 -117 43 -83 -22 -188 -116 -188 -69 0 -168 82 -191
158 -10 35 -9 45 7 78 21 44 75 84 111 84 13 0 40 -7 61 -15z"/>
<path d="M2262 2238 c-20 -20 -14 -33 33 -86 25 -27 45 -54 45 -58 0 -5 -9
-20 -20 -34 -13 -18 -16 -28 -8 -37 15 -18 28 -16 54 8 l23 21 111 -98 c149
-132 162 -139 220 -109 37 19 70 66 77 110 5 34 5 35 -26 35 -23 0 -31 -4 -31
-18 0 -22 -35 -62 -55 -62 -8 0 -66 46 -129 101 l-115 102 41 49 c41 49 41 49
21 69 -19 20 -20 20 -61 -26 -24 -25 -45 -45 -48 -45 -3 0 -29 20 -56 45 -55
49 -58 51 -76 33z"/>
<path d="M2065 2056 c-163 -77 -196 -272 -59 -352 69 -41 128 -28 264 55 62
37 127 25 155 -29 22 -43 19 -89 -11 -132 -25 -35 -93 -78 -125 -78 -29 0 -48
-24 -42 -52 4 -24 10 -28 37 -28 67 1 159 61 200 134 48 82 42 165 -16 232
-71 81 -124 83 -260 14 -110 -56 -153 -63 -185 -27 -11 12 -23 30 -26 40 -20
55 44 142 121 165 43 13 46 19 36 60 -8 28 -27 28 -89 -2z"/>
</g>
</svg>
